<?xml version="1.0" encoding="UTF-8"?>
<!DOCTYPE svg PUBLIC "-//W3C//DTD SVG 1.0//EN" "http://www.w3.org/TR/2001/REC-SVG-20010904/DTD/svg10.dtd">
<!-- Creator: CorelDRAW SE -->
<svg xmlns="http://www.w3.org/2000/svg" xml:space="preserve" width="64px" height="64px" version="1.0" style="shape-rendering:geometricPrecision; text-rendering:geometricPrecision; image-rendering:optimizeQuality; fill-rule:evenodd; clip-rule:evenodd"
viewBox="0 0 64 64"
 xmlns:xlink="http://www.w3.org/1999/xlink">
 <defs>
  <style type="text/css">
   <![CDATA[
    .fil0 {fill:#5CBF15}
    .fil1 {fill:#FEFEFE;fill-rule:nonzero}
   ]]>
  </style>
 </defs>
 <g id="Vrstva_x0020_1">
  <metadata id="CorelCorpID_0Corel-Layer"/>
  <g id="_905292072">
   <rect class="fil0" width="64" height="64" rx="3.2" ry="3.2"/>
   <g>
    <path class="fil1" d="M24.94 29.43l-4.77 0 -3.28 15.46c0,0 -0.58,2.58 -2.4,3.97 -2.82,2.16 -4.97,1.7 -4.97,1.7l4.93 -23.24 0.01 0 0.64 -2.96 -0.01 0 1.12 -5.24c0,0 0.51,-2.46 2.37,-3.98 2.27,-1.87 5.01,-1.74 5.01,-1.74l-2.25 10.62 6.44 0c4.62,0 5.68,2.7 4.88,6.52l-2.29 10.61 0 0 -0.04 0.18 -0.3 1.39 0 0.02 -1.69 7.86c0,0 -3.01,0.05 -4.23,-1.75 -1.24,-1.83 -0.72,-3.97 -0.72,-3.97l2.96 -13.64c0.26,-1.23 -0.06,-1.81 -1.12,-1.81l-0.29 0z"/>
    <path class="fil1" d="M44.39 24.02c-4.24,0 -6.79,2.49 -7.64,6.53l-0.16 0.85c-0.8,3.76 0.16,5.25 3.19,6.95l4.83 2.71c0.74,0.48 0.9,0.95 0.69,1.91l-0.11 0.69c-0.21,1.01 -0.9,1.59 -1.75,1.59l-5.19 0c0,0 -2.08,-0.11 -4.06,1.83 -1.42,1.39 -1.7,3.48 -1.7,3.48l10.84 0c4.09,0 6.75,-2.18 7.65,-6.53l0.37 -1.7c0.74,-3.45 -0.16,-4.83 -2.98,-6.37l-4.98 -2.76c-0.85,-0.53 -1.07,-1.01 -0.91,-1.8l0.06 -0.43c0.21,-1.01 0.95,-1.54 1.8,-1.54l2.75 0c0.85,0 3.45,-0.19 4.92,-1.29 2.51,-1.88 2.47,-4.12 2.47,-4.12l-10.09 0z"/>
   </g>
  </g>
 </g>
</svg>
