<?xml version="1.0" encoding="UTF-8"?>
<!DOCTYPE svg PUBLIC "-//W3C//DTD SVG 1.0//EN" "http://www.w3.org/TR/2001/REC-SVG-20010904/DTD/svg10.dtd">
<!-- Creator: CorelDRAW SE -->
<svg xmlns="http://www.w3.org/2000/svg" xml:space="preserve" width="1000px" height="287px" version="1.0" style="shape-rendering:geometricPrecision; text-rendering:geometricPrecision; image-rendering:optimizeQuality; fill-rule:evenodd; clip-rule:evenodd"
viewBox="0 0 1000 287"
 xmlns:xlink="http://www.w3.org/1999/xlink">
 <defs>
  <style type="text/css">
   <![CDATA[
    .fil1 {fill:#5CBF15}
    .fil0 {fill:#F2F2F2}
    .fil2 {fill:#FEFEFE;fill-rule:nonzero}
    .fil4 {fill:#727271;fill-rule:nonzero}
    .fil3 {fill:#5CBF14;fill-rule:nonzero}
   ]]>
  </style>
 </defs>
 <g id="Vrstva_x0020_1">
  <metadata id="CorelCorpID_0Corel-Layer"/>
  <rect class="fil0" width="1000" height="287"/>
  <g id="_548924000">
   <rect class="fil1" x="450" y="45.02" width="98.47" height="98.47" rx="4.92" ry="4.92"/>
   <g>
    <path class="fil2" d="M488.38 90.31l-7.34 0 -5.06 23.78c0,0 -0.89,3.98 -3.69,6.12 -4.34,3.33 -7.65,2.61 -7.65,2.61l7.59 -35.76 0.02 0.01 0.98 -4.57 -0.01 0 1.72 -8.06c0,0 0.78,-3.78 3.64,-6.12 3.51,-2.88 7.71,-2.68 7.71,-2.68l-3.45 16.34 9.9 0c7.11,0 8.74,4.16 7.52,10.04l-3.53 16.32 0 0 -0.06 0.28 -0.47 2.14 0 0.02 -2.59 12.09c0,0 -4.63,0.09 -6.51,-2.68 -1.91,-2.82 -1.12,-6.11 -1.12,-6.11l4.56 -20.99c0.41,-1.88 -0.09,-2.78 -1.72,-2.78l-0.44 0z"/>
    <path class="fil2" d="M518.31 81.98c-6.54,0 -10.46,3.84 -11.77,10.04l-0.24 1.31c-1.23,5.8 0.24,8.09 4.9,10.71l7.44 4.16c1.14,0.74 1.38,1.47 1.05,2.94l-0.16 1.06c-0.33,1.55 -1.38,2.45 -2.69,2.45l-7.98 0c0,0 -3.21,-0.17 -6.26,2.82 -2.17,2.13 -2.61,5.35 -2.61,5.35l16.68 0c6.3,0 10.38,-3.35 11.77,-10.05l0.57 -2.61c1.14,-5.31 -0.25,-7.43 -4.58,-9.8l-7.67 -4.25c-1.31,-0.82 -1.64,-1.55 -1.39,-2.78l0.08 -0.65c0.32,-1.55 1.47,-2.37 2.78,-2.37l4.23 0c1.3,0 5.31,-0.3 7.56,-1.99 3.87,-2.9 3.81,-6.34 3.81,-6.34l-15.52 0z"/>
   </g>
  </g>
  <g id="_551846680">
   <path class="fil3" d="M334.34 194.97l-6.78 0 -4.67 21.97c0,0 -0.82,3.67 -3.41,5.65 -4.01,3.07 -7.07,2.41 -7.07,2.41l7.01 -33.03 0.02 0.01 0.91 -4.22 -0.01 0 1.59 -7.44c0,0 0.72,-3.5 3.36,-5.66 3.24,-2.66 7.12,-2.47 7.12,-2.47l-3.19 15.09 9.15 0c6.56,0 8.07,3.84 6.94,9.28l-3.26 15.06 0 0 -0.05 0.26 -0.43 1.98 -0.01 0.02 -2.39 11.17c0,0 -4.27,0.08 -6.01,-2.48 -1.77,-2.61 -1.03,-5.64 -1.03,-5.64l4.2 -19.39c0.38,-1.74 -0.07,-2.57 -1.58,-2.57l-0.41 0z"/>
   <path class="fil3" d="M361.98 187.28c-6.03,0 -9.66,3.54 -10.86,9.28l-0.23 1.2c-1.13,5.36 0.23,7.47 4.53,9.89l6.87 3.85c1.05,0.68 1.28,1.35 0.97,2.71l-0.15 0.98c-0.3,1.44 -1.28,2.27 -2.49,2.27l-7.36 0c0,0 -2.97,-0.17 -5.79,2.6 -2,1.97 -2.4,4.94 -2.4,4.94l15.41 0c5.81,0 9.58,-3.09 10.86,-9.28l0.53 -2.41c1.05,-4.91 -0.23,-6.87 -4.23,-9.06l-7.09 -3.92c-1.21,-0.76 -1.51,-1.43 -1.28,-2.57l0.07 -0.6c0.3,-1.43 1.36,-2.19 2.57,-2.19l3.91 0c1.2,0 4.9,-0.27 6.98,-1.83 3.57,-2.68 3.52,-5.86 3.52,-5.86l-14.34 0z"/>
   <path class="fil4" d="M403.89 191.24c-2.31,0 -3.92,1.38 -4.46,3.83l-4.6 21.49c-0.54,2.53 0.54,3.91 2.84,3.91l13.16 -0.02 -0.96 4.55 -14.42 0c-5.3,0 -6.99,-3.22 -5.99,-7.83l4.83 -22.71c0.92,-4.6 3.99,-7.83 9.29,-7.83l14.42 0 -0.95 4.6 -13.16 0.01z"/>
   <path class="fil4" d="M443.94 194.92c0.54,-2.46 -0.46,-3.76 -2.61,-3.76l-7.9 0c-2.15,0 -3.76,1.3 -4.3,3.76l-4.6 21.87c-0.54,2.45 0.46,3.76 2.61,3.76l7.9 0c2.15,0 3.76,-1.31 4.3,-3.76l4.6 -21.87zm-19.95 -0.46c0.92,-4.6 3.99,-7.83 9.28,-7.83l10.05 0c5.3,0 6.99,3.23 6.07,7.83l-4.84 22.71c-0.99,4.61 -4.06,7.83 -9.36,7.83l-10.05 0c-5.29,0 -6.98,-3.22 -5.98,-7.83l4.83 -22.71z"/>
   <path class="fil4" d="M494.66 225l-5.22 0 6.37 -30.08c0.54,-2.46 -0.38,-3.76 -2.61,-3.76l-5.83 0c-2.23,0 -3.76,1.38 -4.3,3.76l-6.37 30.08 -5.21 0 6.37 -30.08c0.53,-2.46 -0.47,-3.76 -2.61,-3.76l-9.36 0 -7.22 33.84 -5.29 0 8.13 -38.37 13.66 0 13.66 0 6.29 0c5.14,0 7.06,3.07 6.06,7.75l-6.52 30.62z"/>
   <path class="fil4" d="M522.9 220.55c2.22,0 3.76,-1.31 4.29,-3.76l4.61 -21.87c0.53,-2.46 -0.39,-3.76 -2.61,-3.76l-11.36 0 -6.29 29.39 11.36 0zm8.28 -33.92c5.3,0 6.98,3.3 6.06,7.83l-4.83 22.71c-1,4.68 -4.22,7.83 -9.36,7.83l-12.43 0 -3.3 15.35 -5.3 0 11.44 -53.72 17.72 0z"/>
   <path class="fil4" d="M549.37 186.63l5.29 0 -6.37 30.16c-0.54,2.45 0.39,3.76 2.61,3.76l11.36 0 7.21 -33.92 5.3 0 -8.14 38.37 -17.72 0c-5.3,0 -6.99,-3.22 -5.99,-7.83l6.45 -30.54z"/>
   <path class="fil4" d="M587.04 220.4l6.5 -0.02 -0.98 4.62 -7.74 0c-5.3,0 -6.99,-3.22 -5.99,-7.83l8.61 -40.91 5.36 0.01 -2.23 10.36 10.13 0 -0.92 4.53 -10.13 0 -5.37 25.32c-0.54,2.54 0.46,3.92 2.76,3.92z"/>
   <path class="fil4" d="M625.33 201.13l1.38 -6.29c0.46,-2.45 -0.46,-3.83 -2.68,-3.83l-7.68 0c-2.22,0 -3.76,1.38 -4.22,3.83l-1.38 6.29 14.58 0zm-17.88 15.74c-0.54,2.3 0.46,3.68 2.61,3.68l15.37 -0.03 -0.94 4.48 -16.42 0c-5.3,0 -6.99,-3.22 -5.99,-7.83l4.83 -22.71c0.93,-4.6 3.99,-7.83 9.36,-7.83l9.44 0c5.3,0 6.99,3.23 6.06,7.83l-2.3 10.59 -19.56 0 -2.46 11.82z"/>
   <path class="fil4" d="M652.03 191.47c-3.3,0 -4.83,2.14 -5.52,5.37l-5.99 28.16 -5.29 0 6.7 -31.66c0,0 0.78,-2.87 2.3,-4.39 1.06,-1.06 2.91,-2.32 5.48,-2.32l3.7 0 6.83 0 -1.01 4.86 -7.2 -0.02z"/>
   <path class="fil4" d="M687.4 186.63l-0.91 4.53 -13.67 0c-2.07,0 -3.68,1.3 -4.14,3.61l-0.23 0.99c-0.38,1.69 0.15,2.84 1.84,4.22l8.83 6.3c3.07,2.22 4.29,3.99 3.3,8.44l-0.46 2.45c-1.08,4.99 -4.38,7.83 -9.36,7.83l-15.43 0 0.97 -4.53c0.93,0.03 14.68,0 14.68,0 2.08,0 3.61,-1.3 4.15,-3.6l0.31 -1.62c0.46,-2.3 0.07,-3.37 -1.46,-4.6l-8.52 -6.22c-3.45,-2.53 -4.83,-4.37 -3.91,-8.59l0.31 -1.38c0.99,-4.76 4.14,-7.83 9.28,-7.83l14.42 0z"/>
  </g>
 </g>
</svg>
