<?xml version="1.0" encoding="UTF-8"?>
<!DOCTYPE svg PUBLIC "-//W3C//DTD SVG 1.0//EN" "http://www.w3.org/TR/2001/REC-SVG-20010904/DTD/svg10.dtd">
<!-- Creator: CorelDRAW SE -->
<svg xmlns="http://www.w3.org/2000/svg" xml:space="preserve" width="300px" height="69px" version="1.0" style="shape-rendering:geometricPrecision; text-rendering:geometricPrecision; image-rendering:optimizeQuality; fill-rule:evenodd; clip-rule:evenodd"
viewBox="0 0 300 69"
 xmlns:xlink="http://www.w3.org/1999/xlink">
 <defs>
  <style type="text/css">
   <![CDATA[
    .fil2 {fill:none}
    .fil1 {fill:#727271;fill-rule:nonzero}
    .fil0 {fill:#5CBF14;fill-rule:nonzero}
   ]]>
  </style>
 </defs>
 <g id="Vrstva_x0020_1">
  <metadata id="CorelCorpID_0Corel-Layer"/>
  <g id="_552914032">
   <path class="fil0" d="M25.33 26l-5.1 0 -3.52 16.54c0,0 -0.62,2.76 -2.56,4.25 -3.02,2.31 -5.32,1.82 -5.32,1.82l5.27 -24.87 0.02 0 0.68 -3.17 -0.01 0 1.2 -5.61c0,0 0.54,-2.63 2.53,-4.26 2.44,-2 5.36,-1.86 5.36,-1.86l-2.4 11.36 6.89 0c4.94,0 6.08,2.9 5.23,6.99l-2.46 11.34 0 0 -0.04 0.2 -0.32 1.49 -0.01 0.02 -1.8 8.4c0,0 -3.22,0.06 -4.52,-1.86 -1.33,-1.97 -0.79,-4.25 -0.79,-4.25l3.17 -14.6c0.29,-1.31 -0.05,-1.93 -1.19,-1.93l-0.31 0z"/>
   <path class="fil0" d="M46.15 20.2c-4.55,0 -7.27,2.67 -8.18,6.99l-0.17 0.91c-0.86,4.03 0.17,5.62 3.4,7.44l5.18 2.9c0.79,0.51 0.96,1.02 0.73,2.04l-0.11 0.74c-0.23,1.08 -0.96,1.71 -1.88,1.71l-5.54 0c0,0 -2.23,-0.13 -4.36,1.96 -1.51,1.48 -1.81,3.72 -1.81,3.72l11.6 0c4.38,0 7.22,-2.33 8.18,-6.99l0.4 -1.82c0.79,-3.69 -0.17,-5.17 -3.18,-6.82l-5.34 -2.95c-0.91,-0.57 -1.14,-1.08 -0.97,-1.93l0.06 -0.46c0.22,-1.07 1.02,-1.64 1.93,-1.64l2.95 0c0.9,0 3.68,-0.21 5.25,-1.38 2.69,-2.02 2.65,-4.42 2.65,-4.42l-10.79 0z"/>
   <path class="fil1" d="M77.7 23.18c-1.73,0 -2.95,1.04 -3.35,2.89l-3.47 16.18c-0.4,1.91 0.41,2.95 2.14,2.95l9.91 -0.02 -0.72 3.43 -10.87 0c-3.98,0 -5.25,-2.43 -4.5,-5.9l3.64 -17.1c0.69,-3.47 3,-5.89 6.99,-5.89l10.86 0 -0.72 3.46 -9.91 0z"/>
   <path class="fil1" d="M107.86 25.96c0.4,-1.85 -0.35,-2.83 -1.97,-2.83l-5.95 0c-1.62,0 -2.83,0.98 -3.23,2.83l-3.47 16.46c-0.4,1.85 0.35,2.83 1.96,2.83l5.96 0c1.61,0 2.83,-0.98 3.23,-2.83l3.47 -16.46zm-15.02 -0.35c0.69,-3.47 3,-5.89 6.99,-5.89l7.56 0c3.99,0 5.26,2.42 4.57,5.89l-3.64 17.1c-0.75,3.47 -3.06,5.9 -7.05,5.9l-7.57 0c-3.99,0 -5.26,-2.43 -4.5,-5.9l3.64 -17.1z"/>
   <path class="fil1" d="M146.05 48.61l-3.93 0 4.79 -22.65c0.41,-1.85 -0.29,-2.83 -1.96,-2.83l-4.39 0c-1.68,0 -2.83,1.04 -3.24,2.83l-4.79 22.65 -3.93 0 4.79 -22.65c0.41,-1.85 -0.34,-2.83 -1.96,-2.83l-7.05 0 -5.43 25.48 -3.99 0 6.13 -28.89 10.28 0 10.29 0 4.73 0c3.87,0 5.32,2.31 4.57,5.83l-4.91 23.06z"/>
   <path class="fil1" d="M167.31 45.25c1.67,0 2.83,-0.98 3.23,-2.83l3.47 -16.46c0.4,-1.85 -0.29,-2.83 -1.97,-2.83l-8.55 0 -4.73 22.12 8.55 0zm6.24 -25.53c3.98,0 5.25,2.48 4.56,5.89l-3.64 17.1c-0.75,3.53 -3.18,5.9 -7.05,5.9l-9.36 0 -2.48 11.55 -3.99 0 8.61 -40.44 13.35 0z"/>
   <path class="fil1" d="M187.24 19.72l3.98 0 -4.79 22.7c-0.41,1.85 0.29,2.83 1.96,2.83l8.55 0 5.44 -25.53 3.98 0 -6.12 28.89 -13.35 0c-3.98,0 -5.26,-2.43 -4.5,-5.9l4.85 -22.99z"/>
   <path class="fil1" d="M215.6 45.14l4.9 -0.01 -0.74 3.48 -5.83 0c-3.99,0 -5.26,-2.43 -4.51,-5.9l6.48 -30.8 4.04 0.01 -1.68 7.8 7.63 0 -0.69 3.41 -7.63 0 -4.04 19.06c-0.41,1.91 0.34,2.95 2.07,2.95z"/>
   <path class="fil1" d="M244.44 30.64l1.04 -4.74c0.34,-1.85 -0.35,-2.89 -2.03,-2.89l-5.77 0c-1.68,0 -2.84,1.04 -3.18,2.89l-1.04 4.74 10.98 0zm-13.47 11.84c-0.4,1.73 0.35,2.77 1.97,2.77l11.57 -0.01 -0.71 3.37 -12.36 0c-3.99,0 -5.26,-2.43 -4.51,-5.9l3.64 -17.1c0.69,-3.47 3,-5.89 7.05,-5.89l7.1 0c3.99,0 5.26,2.42 4.57,5.89l-1.73 7.97 -14.74 0 -1.85 8.9z"/>
   <path class="fil1" d="M264.54 23.36c-2.48,0 -3.64,1.61 -4.16,4.04l-4.51 21.21 -3.98 0 5.04 -23.84c0,0 0.59,-2.16 1.74,-3.31 0.8,-0.8 2.19,-1.74 4.12,-1.74l2.79 0 5.14 0 -0.76 3.65 -5.42 -0.01z"/>
   <path class="fil1" d="M291.17 19.72l-0.69 3.41 -10.28 0c-1.56,0 -2.77,0.98 -3.12,2.71l-0.18 0.75c-0.28,1.27 0.12,2.14 1.39,3.18l6.64 4.74c2.32,1.67 3.24,3 2.49,6.35l-0.35 1.85c-0.81,3.76 -3.29,5.9 -7.05,5.9l-11.61 0 0.73 -3.41c0.7,0.02 11.06,0 11.06,0 1.56,0 2.71,-0.99 3.12,-2.72l0.23 -1.21c0.35,-1.74 0.06,-2.54 -1.1,-3.47l-6.41 -4.68c-2.6,-1.9 -3.64,-3.29 -2.95,-6.47l0.23 -1.04c0.75,-3.58 3.12,-5.89 6.99,-5.89l10.86 0z"/>
  </g>
  <rect class="fil2" width="300" height="69"/>
 </g>
</svg>
