<?xml version="1.0" encoding="UTF-8"?>
<!DOCTYPE svg PUBLIC "-//W3C//DTD SVG 1.0//EN" "http://www.w3.org/TR/2001/REC-SVG-20010904/DTD/svg10.dtd">
<!-- Creator: CorelDRAW SE -->
<svg xmlns="http://www.w3.org/2000/svg" xml:space="preserve" width="32px" height="32px" version="1.0" style="shape-rendering:geometricPrecision; text-rendering:geometricPrecision; image-rendering:optimizeQuality; fill-rule:evenodd; clip-rule:evenodd"
viewBox="0 0 32 32"
 xmlns:xlink="http://www.w3.org/1999/xlink">
 <defs>
  <style type="text/css">
   <![CDATA[
    .fil0 {fill:#5CBF15}
    .fil1 {fill:#FEFEFE;fill-rule:nonzero}
   ]]>
  </style>
 </defs>
 <g id="Vrstva_x0020_1">
  <metadata id="CorelCorpID_0Corel-Layer"/>
  <g id="_908361168">
   <rect class="fil0" width="32" height="32" rx="1.6" ry="1.6"/>
   <g>
    <path class="fil1" d="M12.47 14.72l-2.38 0 -1.65 7.72c0,0 -0.29,1.3 -1.2,1.99 -1.41,1.08 -2.48,0.85 -2.48,0.85l2.46 -11.62 0.01 0 0.32 -1.48 0 0 0.55 -2.62c0,0 0.26,-1.23 1.19,-1.99 1.14,-0.94 2.5,-0.87 2.5,-0.87l-1.12 5.31 3.22 0c2.31,0 2.84,1.35 2.44,3.26l-1.15 5.3 0 0 -0.01 0.09 -0.16 0.7 0 0.01 -0.84 3.93c0,0 -1.5,0.03 -2.11,-0.88 -0.63,-0.91 -0.37,-1.98 -0.37,-1.98l1.48 -6.82c0.14,-0.61 -0.02,-0.9 -0.56,-0.9l-0.14 0z"/>
    <path class="fil1" d="M22.2 12.01c-2.13,0 -3.4,1.25 -3.83,3.26l-0.07 0.43c-0.4,1.88 0.07,2.63 1.59,3.48l2.41 1.35c0.37,0.24 0.46,0.48 0.35,0.95l-0.05 0.35c-0.11,0.5 -0.46,0.8 -0.88,0.8l-2.59 0c0,0 -1.05,-0.06 -2.04,0.91 -0.7,0.7 -0.84,1.74 -0.84,1.74l5.42 0c2.04,0 3.37,-1.09 3.82,-3.26l0.18 -0.85c0.38,-1.73 -0.07,-2.42 -1.48,-3.19l-2.5 -1.38c-0.42,-0.27 -0.53,-0.5 -0.45,-0.9l0.03 -0.21c0.1,-0.51 0.48,-0.77 0.9,-0.77l1.38 0c0.42,0 1.72,-0.1 2.45,-0.65 1.26,-0.94 1.24,-2.06 1.24,-2.06l-5.04 0z"/>
   </g>
  </g>
 </g>
</svg>
